<svg width="50" height="50" viewBox="0 0 50 50" fill="none" xmlns="http://www.w3.org/2000/svg">
<g clip-path="url(#clip0_33_62)">
<path fill-rule="evenodd" clip-rule="evenodd" d="M12.6786 0H0.178573V12.5C0.178573 18.8655 4.93665 24.1197 11.0903 24.9C4.85038 25.6005 1.05506e-06 30.8945 5.46393e-07 37.3215L0 49.8215H12.5C18.8655 49.8215 24.1197 45.0633 24.9 38.9098C25.6005 45.1497 30.8945 50 37.3215 50H49.8215V37.5C49.8215 31.1345 45.0633 25.8803 38.9098 25.1C45.1497 24.3996 50 19.1055 50 12.6786V0.178572L37.5 0.178571C31.1345 0.17857 25.8803 4.93665 25.1 11.0903C24.3996 4.85038 19.1055 0 12.6786 0Z" fill="black"/>
</g>
<defs>
<clipPath id="clip0_33_62">
<rect width="50" height="50" fill="white"/>
</clipPath>
</defs>
</svg>
