<svg width="26" height="32" viewBox="0 0 26 32" fill="none" xmlns="http://www.w3.org/2000/svg">
<g clip-path="url(#clip0_36_151)">
<path d="M18.6875 3.2002H7.3125C5.07 3.2002 3.25 4.9922 3.25 7.2002V18.4002C3.25 20.6082 5.07 22.4002 7.3125 22.4002H18.6875C20.93 22.4002 22.75 20.6082 22.75 18.4002V7.2002C22.75 4.9922 20.93 3.2002 18.6875 3.2002ZM21.125 18.4002C21.125 19.7202 20.0281 20.8002 18.6875 20.8002H7.3125C5.97187 20.8002 4.875 19.7202 4.875 18.4002V7.2002C4.875 5.8802 5.97187 4.8002 7.3125 4.8002H18.6875C20.0281 4.8002 21.125 5.8802 21.125 7.2002V18.4002Z" fill="black"/>
<path d="M13 7.2002C9.86375 7.2002 7.3125 9.7122 7.3125 12.8002C7.3125 15.8882 9.86375 18.4002 13 18.4002C16.1362 18.4002 18.6875 15.8882 18.6875 12.8002C18.6875 9.7122 16.1362 7.2002 13 7.2002ZM13 16.8002C10.7575 16.8002 8.9375 15.0082 8.9375 12.8002C8.9375 10.5922 10.7575 8.8002 13 8.8002C15.2425 8.8002 17.0625 10.5922 17.0625 12.8002C17.0625 15.0082 15.2425 16.8002 13 16.8002Z" fill="black"/>
<path d="M18.6875 7.9999C19.1362 7.9999 19.5 7.64173 19.5 7.1999C19.5 6.75807 19.1362 6.3999 18.6875 6.3999C18.2388 6.3999 17.875 6.75807 17.875 7.1999C17.875 7.64173 18.2388 7.9999 18.6875 7.9999Z" fill="black"/>
</g>
<defs>
<clipPath id="clip0_36_151">
<rect width="26" height="32" fill="white"/>
</clipPath>
</defs>
</svg>
