<svg width="104" height="27" viewBox="0 0 104 27" fill="none" xmlns="http://www.w3.org/2000/svg">
<path d="M11.872 26V24.336C10.656 25.712 9.152 26.32 6.944 26.32C3.36 26.32 0.96 24.176 0.96 20.912C0.96 17.552 3.68 15.728 8.608 15.728C9.536 15.728 10.4 15.792 11.136 15.92V15.088C11.136 13.584 10.272 12.752 8.736 12.752C7.232 12.752 6.336 13.584 6.144 15.088H1.216C1.536 11.088 4.512 8.464 8.768 8.464C13.504 8.464 16.288 11.024 16.288 15.376V26H11.872ZM6.112 20.752C6.112 21.872 6.88 22.544 8.224 22.544C10.048 22.544 11.136 21.68 11.136 20.272V19.184C10.304 19.024 9.664 18.96 8.96 18.96C7.104 18.96 6.112 19.568 6.112 20.752ZM22.9303 16.944V26H17.4583V3.024H22.9303V10.64C24.1783 9.296 25.4263 8.464 27.6023 8.464C30.9943 8.464 33.3943 10.736 33.3943 14.928V26H27.9223V16.752C27.9223 14.576 27.1543 13.392 25.4903 13.392C24.1463 13.392 22.9303 14.352 22.9303 16.944ZM40.0653 26H34.5933V8.784H39.6173V10.896C40.9293 9.36 42.3373 8.464 44.5773 8.464C46.7533 8.464 48.4813 9.392 49.4413 11.12C50.9133 9.456 52.4493 8.464 54.9773 8.464C58.4013 8.464 60.8013 10.736 60.8013 14.928V26H55.3293V16.624C55.3293 14.64 54.5293 13.392 52.9613 13.392C51.5853 13.392 50.4333 14.352 50.4333 16.656V26H44.9613V16.624C44.9613 14.64 44.1613 13.392 42.5933 13.392C41.1853 13.392 40.0653 14.352 40.0653 16.656V26ZM69.7542 26.288C64.4422 26.288 60.8902 22.704 60.8902 17.36C60.8902 12.208 64.6022 8.464 69.7222 8.464C75.4182 8.464 79.2262 13.104 78.2342 18.768H66.5542C66.8422 20.944 67.8662 22.032 69.6262 22.032C71.1622 22.032 72.1862 21.392 72.6662 20.144H78.1383C77.0822 24.08 74.0422 26.288 69.7542 26.288ZM69.5942 12.496C67.9622 12.496 67.0022 13.424 66.6182 15.344H72.3782C72.3142 13.616 71.2262 12.496 69.5942 12.496ZM77.244 17.392C77.244 12.4 80.284 8.464 84.924 8.464C86.716 8.464 88.252 9.104 89.596 10.384V3.024H95.068V26H90.044V24.048C88.636 25.52 86.94 26.32 84.924 26.32C80.284 26.32 77.244 22.32 77.244 17.392ZM82.94 17.392C82.94 20.08 84.572 21.392 86.236 21.392C87.932 21.392 89.532 20.08 89.532 17.36C89.532 14.608 87.9 13.392 86.236 13.392C84.572 13.392 82.94 14.64 82.94 17.392Z" fill="#10100E"/>
<path d="M98 0H96V4.00001H98C96.8952 4.00001 96 4.89545 96 6.00001V8H100V6.00001C100 7.10456 100.895 8 102 8H104V4.00001H102C103.105 4.00001 104 3.10458 104 2V0H100V2C100 0.895432 99.1048 0 98 0ZM100 4.00001H98C99.1048 4.00001 100 4.89545 100 6.00001V4.00001ZM100 4.00001V2C100 3.10458 100.895 4.00001 102 4.00001H100Z" fill="#D63800"/>
</svg>
