<svg width="161" height="31" viewBox="0 0 161 31" fill="none" xmlns="http://www.w3.org/2000/svg">
<path d="M18.404 23.716H18.98V28H16.388C13.76 28 12.932 26.74 12.968 24.976C11.672 27.028 9.8 28.216 6.92 28.216C2.924 28.216 0.044 26.308 0.044 22.78C0.044 18.856 2.996 16.624 8.54 16.624H12.212V15.724C12.212 14.068 11.024 12.988 8.9 12.988C6.92 12.988 5.588 13.888 5.372 15.256H0.476C0.836 11.656 4.148 9.28 9.044 9.28C14.228 9.28 17.216 11.584 17.216 16.012V22.564C17.216 23.536 17.612 23.716 18.404 23.716ZM12.212 20.368V20.008H8.504C6.38 20.008 5.156 20.872 5.156 22.42C5.156 23.716 6.2 24.544 7.892 24.544C10.556 24.544 12.176 22.888 12.212 20.368ZM31.4917 9.28C35.5957 9.28 38.9797 11.476 38.9797 17.74V28H33.9037V18.172C33.9037 15.148 32.6797 13.456 30.1597 13.456C27.5677 13.456 26.0197 15.328 26.0197 18.496V28H20.9437V2.8H26.0197V11.764C27.2077 10.324 28.8637 9.28 31.4917 9.28ZM64.3181 9.28C68.1341 9.28 71.1581 11.44 71.1581 17.38V28H66.0821V17.668C66.0821 14.896 65.0741 13.456 62.8781 13.456C60.6821 13.456 59.2061 15.076 59.2061 17.884V28H54.1301V17.668C54.1301 14.896 53.1221 13.456 50.8901 13.456C48.6941 13.456 47.2541 15.148 47.2541 17.92V28H42.1781V9.496H46.6061L47.0741 11.8C48.1901 10.36 49.8101 9.316 52.5101 9.28C54.7781 9.244 56.9021 10.072 58.0541 12.412C59.3501 10.432 61.5101 9.28 64.3181 9.28ZM83.4197 28.216C77.2637 28.216 73.5557 24.508 73.5557 18.784C73.5557 13.024 77.3357 9.28 83.0597 9.28C88.6037 9.28 92.3477 12.736 92.4197 18.172C92.4197 18.712 92.3837 19.324 92.2757 19.9H78.8477V20.152C78.9557 22.78 80.6477 24.364 83.2037 24.364C85.2557 24.364 86.6957 23.464 87.1277 21.736H92.1317C91.5557 25.336 88.3517 28.216 83.4197 28.216ZM78.9557 16.588H87.3077C86.9477 14.32 85.3997 13.06 83.0957 13.06C80.8997 13.06 79.2437 14.392 78.9557 16.588ZM108.622 11.8V2.8H113.698V28H109.27L108.766 25.444C107.542 27.028 105.742 28.216 103.078 28.216C98.1097 28.216 94.4737 24.58 94.4737 18.712C94.4737 12.988 98.1097 9.28 103.042 9.28C105.598 9.28 107.434 10.288 108.622 11.8ZM104.194 24.076C106.966 24.076 108.694 21.916 108.694 18.784C108.694 15.616 106.966 13.42 104.194 13.42C101.422 13.42 99.6577 15.58 99.6577 18.748C99.6577 21.916 101.422 24.076 104.194 24.076Z" fill="black"/>
<g filter="url(#filter0_d_0_1)">
<path d="M133 28V12.25C133 5.48452 138.596 0 145.5 0C152.404 0 158 5.48451 158 12.25V28H133Z" fill="black"/>
</g>
<defs>
<filter id="filter0_d_0_1" x="133" y="0" width="28" height="31" filterUnits="userSpaceOnUse" color-interpolation-filters="sRGB">
<feFlood flood-opacity="0" result="BackgroundImageFix"/>
<feColorMatrix in="SourceAlpha" type="matrix" values="0 0 0 0 0 0 0 0 0 0 0 0 0 0 0 0 0 0 127 0" result="hardAlpha"/>
<feOffset dx="3" dy="3"/>
<feComposite in2="hardAlpha" operator="out"/>
<feColorMatrix type="matrix" values="0 0 0 0 0.521569 0 0 0 0 0.521569 0 0 0 0 0.427451 0 0 0 1 0"/>
<feBlend mode="normal" in2="BackgroundImageFix" result="effect1_dropShadow_0_1"/>
<feBlend mode="normal" in="SourceGraphic" in2="effect1_dropShadow_0_1" result="shape"/>
</filter>
</defs>
</svg>
